<svg id="Layer_1" data-name="Layer 1" xmlns="http://www.w3.org/2000/svg" viewBox="0 0 442.4 508"><defs><style>.cls-1{fill:#367588;}</style></defs><path class="cls-1" d="M157.7,297H59.4a8.24,8.24,0,0,1-8.2-8.2V190.5A106.65,106.65,0,0,1,157.7,84H313.4a8.24,8.24,0,0,1,8.2,8.2v98.3a8.24,8.24,0,0,1-8.2,8.2H174.1a8.24,8.24,0,0,0-8.2,8.2v81.9A8.24,8.24,0,0,1,157.7,297ZM67.6,280.6h81.9V206.9a24.58,24.58,0,0,1,24.6-24.6H305.2V100.4H157.7a90.18,90.18,0,0,0-90.1,90.1Z" transform="translate(-34.8 -2)"/><path class="cls-1" d="M362.5,215H313.3a8.24,8.24,0,0,1-8.2-8.2V75.7a8.24,8.24,0,0,1,8.2-8.2h49.2a8.24,8.24,0,0,1,8.2,8.2V206.8A8.17,8.17,0,0,1,362.5,215Zm-41-16.4h32.8V83.9H321.5Z" transform="translate(-34.8 -2)"/><path class="cls-1" d="M469,198.6H362.5a8.24,8.24,0,0,1-8.2-8.2V92.1a8.24,8.24,0,0,1,8.2-8.2H469a8.24,8.24,0,0,1,8.2,8.2v98.3A8.11,8.11,0,0,1,469,198.6Zm-98.3-16.3h90.1V100.4H370.7Z" transform="translate(-34.8 -2)"/><path class="cls-1" d="M354.3,83.9H321.5a8.24,8.24,0,0,1-8.2-8.2V10.2A8.24,8.24,0,0,1,321.5,2h32.8a8.24,8.24,0,0,1,8.2,8.2V75.7A8.17,8.17,0,0,1,354.3,83.9ZM329.7,67.6h16.4V18.4H329.7Z" transform="translate(-34.8 -2)"/><path class="cls-1" d="M431.9,67.6a28.25,28.25,0,0,1-5-.5L352.8,52.5a8.23,8.23,0,0,1-6.6-8V25.1a8.15,8.15,0,0,1,6.6-8L426.9,2.5c18-3.5,34,12.3,34,32.3C460.8,52.9,447.8,67.6,431.9,67.6ZM362.5,37.7,430,51c7.6,1.5,14.5-6.5,14.5-16.2S437.7,17,430,18.6L362.5,31.9Z" transform="translate(-34.8 -2)"/><path class="cls-1" d="M244,67.6c-16,0-29-14.7-29-32.8C215,14.9,231-1,249,2.5l74.1,14.6a8.23,8.23,0,0,1,6.6,8V44.4a8.15,8.15,0,0,1-6.6,8L249,67A20.74,20.74,0,0,1,244,67.6Zm0-49.2c-6.8,0-12.6,7.5-12.6,16.4,0,9.7,6.9,17.7,14.5,16.2l67.5-13.3V31.8L245.9,18.5C245.3,18.5,244.6,18.4,244,18.4Z" transform="translate(-34.8 -2)"/><path class="cls-1" d="M174.1,329.7H43a8.24,8.24,0,0,1-8.2-8.2V288.7a8.24,8.24,0,0,1,8.2-8.2H174.1a8.24,8.24,0,0,1,8.2,8.2v32.8A8.17,8.17,0,0,1,174.1,329.7ZM51.2,313.4H165.9V297H51.2Z" transform="translate(-34.8 -2)"/><path class="cls-1" d="M100.3,510a65.6,65.6,0,0,1-65.5-65.5c0-34,53.6-89.6,59.7-95.9a8.52,8.52,0,0,1,11.7,0c6.1,6.2,59.7,61.8,59.7,95.9A65.62,65.62,0,0,1,100.3,510Zm0-143.8c-17.7,19.2-49.2,57.6-49.2,78.2a49.2,49.2,0,1,0,98.4,0C149.5,423.8,118,385.4,100.3,366.2Z" transform="translate(-34.8 -2)"/></svg>